<mxfile host="app.diagrams.net" agent="Mozilla/5.0 (Windows NT 10.0; Win64; x64) AppleWebKit/537.36 (KHTML, like Gecko) Chrome/129.0.0.0 Safari/537.36" version="24.7.16">
  <diagram name="Сторінка-1" id="D6tI5AduePsdRQDRufaY">
    <mxGraphModel dx="1405" dy="572" grid="1" gridSize="10" guides="1" tooltips="1" connect="1" arrows="1" fold="1" page="1" pageScale="1" pageWidth="827" pageHeight="1169" math="0" shadow="0">
      <root>
        <mxCell id="0" />
        <mxCell id="1" parent="0" />
        <mxCell id="GrpmCBo9e22xvNcF5VD7-3" value="" style="edgeStyle=orthogonalEdgeStyle;rounded=0;orthogonalLoop=1;jettySize=auto;html=1;endArrow=none;endFill=0;" parent="1" source="GrpmCBo9e22xvNcF5VD7-1" target="GrpmCBo9e22xvNcF5VD7-2" edge="1">
          <mxGeometry relative="1" as="geometry" />
        </mxCell>
        <mxCell id="GrpmCBo9e22xvNcF5VD7-1" value="початок" style="rounded=1;whiteSpace=wrap;html=1;" parent="1" vertex="1">
          <mxGeometry x="56" y="20" width="94" height="40" as="geometry" />
        </mxCell>
        <mxCell id="GrpmCBo9e22xvNcF5VD7-5" value="" style="edgeStyle=orthogonalEdgeStyle;shape=connector;rounded=0;orthogonalLoop=1;jettySize=auto;html=1;strokeColor=default;align=center;verticalAlign=middle;fontFamily=Helvetica;fontSize=11;fontColor=default;labelBackgroundColor=default;endArrow=none;endFill=0;" parent="1" source="GrpmCBo9e22xvNcF5VD7-2" target="GrpmCBo9e22xvNcF5VD7-4" edge="1">
          <mxGeometry relative="1" as="geometry" />
        </mxCell>
        <mxCell id="GrpmCBo9e22xvNcF5VD7-2" value="P, S, i, k" style="shape=parallelogram;perimeter=parallelogramPerimeter;whiteSpace=wrap;html=1;fixedSize=1;" parent="1" vertex="1">
          <mxGeometry x="43" y="90" width="120" height="60" as="geometry" />
        </mxCell>
        <mxCell id="GrpmCBo9e22xvNcF5VD7-7" value="" style="edgeStyle=orthogonalEdgeStyle;shape=connector;rounded=0;orthogonalLoop=1;jettySize=auto;html=1;strokeColor=default;align=center;verticalAlign=middle;fontFamily=Helvetica;fontSize=11;fontColor=default;labelBackgroundColor=default;endArrow=none;endFill=0;" parent="1" source="GrpmCBo9e22xvNcF5VD7-4" target="GrpmCBo9e22xvNcF5VD7-6" edge="1">
          <mxGeometry relative="1" as="geometry" />
        </mxCell>
        <mxCell id="GrpmCBo9e22xvNcF5VD7-4" value="S = 0" style="rounded=0;whiteSpace=wrap;html=1;fontFamily=Helvetica;fontSize=11;fontColor=default;labelBackgroundColor=default;" parent="1" vertex="1">
          <mxGeometry x="64.5" y="180" width="77" height="50" as="geometry" />
        </mxCell>
        <mxCell id="GrpmCBo9e22xvNcF5VD7-9" value="" style="edgeStyle=orthogonalEdgeStyle;shape=connector;rounded=0;orthogonalLoop=1;jettySize=auto;html=1;strokeColor=default;align=center;verticalAlign=middle;fontFamily=Helvetica;fontSize=11;fontColor=default;labelBackgroundColor=default;endArrow=none;endFill=0;" parent="1" source="GrpmCBo9e22xvNcF5VD7-6" target="GrpmCBo9e22xvNcF5VD7-8" edge="1">
          <mxGeometry relative="1" as="geometry" />
        </mxCell>
        <mxCell id="GrpmCBo9e22xvNcF5VD7-6" value="i = 1" style="rounded=0;whiteSpace=wrap;html=1;fontFamily=Helvetica;fontSize=11;fontColor=default;labelBackgroundColor=default;" parent="1" vertex="1">
          <mxGeometry x="64.5" y="260" width="77" height="50" as="geometry" />
        </mxCell>
        <mxCell id="GrpmCBo9e22xvNcF5VD7-11" value="" style="edgeStyle=orthogonalEdgeStyle;shape=connector;rounded=0;orthogonalLoop=1;jettySize=auto;html=1;strokeColor=default;align=center;verticalAlign=middle;fontFamily=Helvetica;fontSize=11;fontColor=default;labelBackgroundColor=default;endArrow=none;endFill=0;" parent="1" source="GrpmCBo9e22xvNcF5VD7-8" target="GrpmCBo9e22xvNcF5VD7-10" edge="1">
          <mxGeometry relative="1" as="geometry">
            <Array as="points">
              <mxPoint x="218" y="380" />
            </Array>
          </mxGeometry>
        </mxCell>
        <mxCell id="GrpmCBo9e22xvNcF5VD7-30" style="edgeStyle=orthogonalEdgeStyle;shape=connector;rounded=0;orthogonalLoop=1;jettySize=auto;html=1;entryX=0.5;entryY=0;entryDx=0;entryDy=0;strokeColor=default;align=center;verticalAlign=middle;fontFamily=Helvetica;fontSize=11;fontColor=default;labelBackgroundColor=default;endArrow=none;endFill=0;" parent="1" source="GrpmCBo9e22xvNcF5VD7-8" target="GrpmCBo9e22xvNcF5VD7-29" edge="1">
          <mxGeometry relative="1" as="geometry">
            <Array as="points">
              <mxPoint y="380" />
              <mxPoint y="950" />
              <mxPoint x="60" y="950" />
            </Array>
          </mxGeometry>
        </mxCell>
        <mxCell id="GrpmCBo9e22xvNcF5VD7-8" value="i &amp;lt;= 10" style="rhombus;whiteSpace=wrap;html=1;fontFamily=Helvetica;fontSize=11;fontColor=default;labelBackgroundColor=default;" parent="1" vertex="1">
          <mxGeometry x="48" y="340" width="110" height="80" as="geometry" />
        </mxCell>
        <mxCell id="GrpmCBo9e22xvNcF5VD7-13" value="" style="edgeStyle=orthogonalEdgeStyle;shape=connector;rounded=0;orthogonalLoop=1;jettySize=auto;html=1;strokeColor=default;align=center;verticalAlign=middle;fontFamily=Helvetica;fontSize=11;fontColor=default;labelBackgroundColor=default;endArrow=none;endFill=0;" parent="1" source="GrpmCBo9e22xvNcF5VD7-10" target="GrpmCBo9e22xvNcF5VD7-12" edge="1">
          <mxGeometry relative="1" as="geometry" />
        </mxCell>
        <mxCell id="GrpmCBo9e22xvNcF5VD7-10" value="P = 1" style="whiteSpace=wrap;html=1;fontSize=11;labelBackgroundColor=default;" parent="1" vertex="1">
          <mxGeometry x="177" y="420" width="82" height="50" as="geometry" />
        </mxCell>
        <mxCell id="GrpmCBo9e22xvNcF5VD7-15" value="" style="edgeStyle=orthogonalEdgeStyle;shape=connector;rounded=0;orthogonalLoop=1;jettySize=auto;html=1;strokeColor=default;align=center;verticalAlign=middle;fontFamily=Helvetica;fontSize=11;fontColor=default;labelBackgroundColor=default;endArrow=none;endFill=0;" parent="1" source="GrpmCBo9e22xvNcF5VD7-12" target="GrpmCBo9e22xvNcF5VD7-14" edge="1">
          <mxGeometry relative="1" as="geometry" />
        </mxCell>
        <mxCell id="GrpmCBo9e22xvNcF5VD7-12" value="k = 1" style="whiteSpace=wrap;html=1;fontSize=11;labelBackgroundColor=default;" parent="1" vertex="1">
          <mxGeometry x="177" y="500" width="82" height="50" as="geometry" />
        </mxCell>
        <mxCell id="GrpmCBo9e22xvNcF5VD7-17" value="" style="edgeStyle=orthogonalEdgeStyle;shape=connector;rounded=0;orthogonalLoop=1;jettySize=auto;html=1;strokeColor=default;align=center;verticalAlign=middle;fontFamily=Helvetica;fontSize=11;fontColor=default;labelBackgroundColor=default;endArrow=none;endFill=0;" parent="1" source="GrpmCBo9e22xvNcF5VD7-14" target="GrpmCBo9e22xvNcF5VD7-16" edge="1">
          <mxGeometry relative="1" as="geometry">
            <Array as="points">
              <mxPoint x="333" y="620" />
            </Array>
          </mxGeometry>
        </mxCell>
        <mxCell id="GrpmCBo9e22xvNcF5VD7-22" style="edgeStyle=orthogonalEdgeStyle;shape=connector;rounded=0;orthogonalLoop=1;jettySize=auto;html=1;entryX=0.5;entryY=0;entryDx=0;entryDy=0;strokeColor=default;align=center;verticalAlign=middle;fontFamily=Helvetica;fontSize=11;fontColor=default;labelBackgroundColor=default;endArrow=none;endFill=0;" parent="1" source="GrpmCBo9e22xvNcF5VD7-14" target="GrpmCBo9e22xvNcF5VD7-21" edge="1">
          <mxGeometry relative="1" as="geometry">
            <Array as="points">
              <mxPoint x="116" y="620" />
              <mxPoint x="116" y="780" />
              <mxPoint x="218" y="780" />
            </Array>
          </mxGeometry>
        </mxCell>
        <mxCell id="GrpmCBo9e22xvNcF5VD7-14" value="k &amp;lt;= i" style="rhombus;whiteSpace=wrap;html=1;fontFamily=Helvetica;fontSize=11;fontColor=default;labelBackgroundColor=default;" parent="1" vertex="1">
          <mxGeometry x="163" y="580" width="110" height="80" as="geometry" />
        </mxCell>
        <mxCell id="GrpmCBo9e22xvNcF5VD7-19" value="" style="edgeStyle=orthogonalEdgeStyle;shape=connector;rounded=0;orthogonalLoop=1;jettySize=auto;html=1;strokeColor=default;align=center;verticalAlign=middle;fontFamily=Helvetica;fontSize=11;fontColor=default;labelBackgroundColor=default;endArrow=none;endFill=0;" parent="1" source="GrpmCBo9e22xvNcF5VD7-16" target="GrpmCBo9e22xvNcF5VD7-18" edge="1">
          <mxGeometry relative="1" as="geometry" />
        </mxCell>
        <mxCell id="GrpmCBo9e22xvNcF5VD7-16" value="&lt;span style=&quot;font-family: &amp;quot;Cascadia Mono&amp;quot;; font-size: 12.6667px;&quot;&gt;P *= i + S&lt;/span&gt;" style="whiteSpace=wrap;html=1;fontSize=11;labelBackgroundColor=default;" parent="1" vertex="1">
          <mxGeometry x="273" y="660" width="120" height="60" as="geometry" />
        </mxCell>
        <mxCell id="GrpmCBo9e22xvNcF5VD7-20" style="edgeStyle=orthogonalEdgeStyle;shape=connector;rounded=0;orthogonalLoop=1;jettySize=auto;html=1;strokeColor=default;align=center;verticalAlign=middle;fontFamily=Helvetica;fontSize=11;fontColor=default;labelBackgroundColor=default;endArrow=classic;endFill=1;" parent="1" source="GrpmCBo9e22xvNcF5VD7-18" edge="1">
          <mxGeometry relative="1" as="geometry">
            <mxPoint x="216" y="570" as="targetPoint" />
            <Array as="points">
              <mxPoint x="410" y="780" />
              <mxPoint x="410" y="570" />
            </Array>
          </mxGeometry>
        </mxCell>
        <mxCell id="GrpmCBo9e22xvNcF5VD7-18" value="i++" style="whiteSpace=wrap;html=1;fontSize=13;labelBackgroundColor=default;" parent="1" vertex="1">
          <mxGeometry x="273" y="750" width="120" height="60" as="geometry" />
        </mxCell>
        <mxCell id="GrpmCBo9e22xvNcF5VD7-24" value="" style="edgeStyle=orthogonalEdgeStyle;shape=connector;rounded=0;orthogonalLoop=1;jettySize=auto;html=1;strokeColor=default;align=center;verticalAlign=middle;fontFamily=Helvetica;fontSize=11;fontColor=default;labelBackgroundColor=default;endArrow=none;endFill=0;" parent="1" source="GrpmCBo9e22xvNcF5VD7-21" target="GrpmCBo9e22xvNcF5VD7-23" edge="1">
          <mxGeometry relative="1" as="geometry" />
        </mxCell>
        <mxCell id="GrpmCBo9e22xvNcF5VD7-21" value="&lt;span style=&quot;font-family: &amp;quot;Cascadia Mono&amp;quot;; font-size: 12.6667px;&quot;&gt;S += 1. / k&lt;/span&gt;" style="whiteSpace=wrap;html=1;fontSize=11;labelBackgroundColor=default;" parent="1" vertex="1">
          <mxGeometry x="158" y="830" width="120" height="60" as="geometry" />
        </mxCell>
        <mxCell id="GrpmCBo9e22xvNcF5VD7-25" style="edgeStyle=orthogonalEdgeStyle;shape=connector;rounded=0;orthogonalLoop=1;jettySize=auto;html=1;strokeColor=default;align=center;verticalAlign=middle;fontFamily=Helvetica;fontSize=11;fontColor=default;labelBackgroundColor=default;endArrow=classic;endFill=1;" parent="1" source="GrpmCBo9e22xvNcF5VD7-23" edge="1">
          <mxGeometry relative="1" as="geometry">
            <mxPoint x="106" y="330" as="targetPoint" />
            <Array as="points">
              <mxPoint x="440" y="950" />
              <mxPoint x="440" y="330" />
            </Array>
          </mxGeometry>
        </mxCell>
        <mxCell id="GrpmCBo9e22xvNcF5VD7-23" value="&lt;font face=&quot;Cascadia Mono&quot;&gt;&lt;span style=&quot;font-size: 12.6667px;&quot;&gt;k++&lt;/span&gt;&lt;/font&gt;" style="whiteSpace=wrap;html=1;fontSize=11;labelBackgroundColor=default;" parent="1" vertex="1">
          <mxGeometry x="158" y="920" width="120" height="60" as="geometry" />
        </mxCell>
        <mxCell id="GrpmCBo9e22xvNcF5VD7-26" value="+" style="text;html=1;align=center;verticalAlign=middle;resizable=0;points=[];autosize=1;strokeColor=none;fillColor=none;fontFamily=Helvetica;fontSize=11;fontColor=default;labelBackgroundColor=default;" parent="1" vertex="1">
          <mxGeometry x="296" y="590" width="30" height="30" as="geometry" />
        </mxCell>
        <mxCell id="GrpmCBo9e22xvNcF5VD7-27" value="+" style="text;html=1;align=center;verticalAlign=middle;resizable=0;points=[];autosize=1;strokeColor=none;fillColor=none;fontFamily=Helvetica;fontSize=11;fontColor=default;labelBackgroundColor=default;" parent="1" vertex="1">
          <mxGeometry x="177" y="350" width="30" height="30" as="geometry" />
        </mxCell>
        <mxCell id="GrpmCBo9e22xvNcF5VD7-28" value="-" style="text;html=1;align=center;verticalAlign=middle;resizable=0;points=[];autosize=1;strokeColor=none;fillColor=none;fontFamily=Helvetica;fontSize=11;fontColor=default;labelBackgroundColor=default;" parent="1" vertex="1">
          <mxGeometry x="120" y="590" width="30" height="30" as="geometry" />
        </mxCell>
        <mxCell id="GrpmCBo9e22xvNcF5VD7-32" value="" style="edgeStyle=orthogonalEdgeStyle;shape=connector;rounded=0;orthogonalLoop=1;jettySize=auto;html=1;strokeColor=default;align=center;verticalAlign=middle;fontFamily=Helvetica;fontSize=11;fontColor=default;labelBackgroundColor=default;endArrow=none;endFill=0;entryX=0.5;entryY=0;entryDx=0;entryDy=0;" parent="1" source="GrpmCBo9e22xvNcF5VD7-29" target="GrpmCBo9e22xvNcF5VD7-33" edge="1">
          <mxGeometry relative="1" as="geometry">
            <mxPoint x="60" y="1079.9999999999998" as="targetPoint" />
          </mxGeometry>
        </mxCell>
        <mxCell id="GrpmCBo9e22xvNcF5VD7-29" value="S" style="shape=document;whiteSpace=wrap;html=1;boundedLbl=1;fontFamily=Helvetica;fontSize=11;fontColor=default;labelBackgroundColor=default;" parent="1" vertex="1">
          <mxGeometry x="20" y="990" width="80" height="60" as="geometry" />
        </mxCell>
        <mxCell id="GrpmCBo9e22xvNcF5VD7-36" value="" style="edgeStyle=orthogonalEdgeStyle;shape=connector;rounded=0;orthogonalLoop=1;jettySize=auto;html=1;strokeColor=default;align=center;verticalAlign=middle;fontFamily=Helvetica;fontSize=11;fontColor=default;labelBackgroundColor=default;endArrow=none;endFill=0;" parent="1" source="GrpmCBo9e22xvNcF5VD7-33" target="GrpmCBo9e22xvNcF5VD7-35" edge="1">
          <mxGeometry relative="1" as="geometry" />
        </mxCell>
        <mxCell id="GrpmCBo9e22xvNcF5VD7-33" value="P = 1, i=1" style="whiteSpace=wrap;html=1;fontSize=11;labelBackgroundColor=default;" parent="1" vertex="1">
          <mxGeometry y="1080" width="120" height="60" as="geometry" />
        </mxCell>
        <mxCell id="GrpmCBo9e22xvNcF5VD7-38" value="" style="edgeStyle=orthogonalEdgeStyle;shape=connector;rounded=0;orthogonalLoop=1;jettySize=auto;html=1;strokeColor=default;align=center;verticalAlign=middle;fontFamily=Helvetica;fontSize=11;fontColor=default;labelBackgroundColor=default;endArrow=none;endFill=0;" parent="1" source="GrpmCBo9e22xvNcF5VD7-35" target="GrpmCBo9e22xvNcF5VD7-37" edge="1">
          <mxGeometry relative="1" as="geometry" />
        </mxCell>
        <mxCell id="GrpmCBo9e22xvNcF5VD7-35" value="S = 0, k= 1" style="whiteSpace=wrap;html=1;fontSize=11;labelBackgroundColor=default;" parent="1" vertex="1">
          <mxGeometry y="1190" width="120" height="60" as="geometry" />
        </mxCell>
        <mxCell id="GrpmCBo9e22xvNcF5VD7-40" value="" style="edgeStyle=orthogonalEdgeStyle;shape=connector;rounded=0;orthogonalLoop=1;jettySize=auto;html=1;strokeColor=default;align=center;verticalAlign=middle;fontFamily=Helvetica;fontSize=11;fontColor=default;labelBackgroundColor=default;endArrow=none;endFill=0;" parent="1" source="GrpmCBo9e22xvNcF5VD7-37" target="GrpmCBo9e22xvNcF5VD7-39" edge="1">
          <mxGeometry relative="1" as="geometry" />
        </mxCell>
        <mxCell id="GrpmCBo9e22xvNcF5VD7-37" value="&lt;span style=&quot;font-family: &amp;quot;Cascadia Mono&amp;quot;; font-size: 12.6667px;&quot;&gt;S += 1. / k&lt;/span&gt;" style="whiteSpace=wrap;html=1;fontSize=11;labelBackgroundColor=default;" parent="1" vertex="1">
          <mxGeometry y="1300" width="120" height="60" as="geometry" />
        </mxCell>
        <mxCell id="GrpmCBo9e22xvNcF5VD7-42" value="" style="edgeStyle=orthogonalEdgeStyle;shape=connector;rounded=0;orthogonalLoop=1;jettySize=auto;html=1;strokeColor=default;align=center;verticalAlign=middle;fontFamily=Helvetica;fontSize=11;fontColor=default;labelBackgroundColor=default;endArrow=none;endFill=0;" parent="1" source="GrpmCBo9e22xvNcF5VD7-39" target="GrpmCBo9e22xvNcF5VD7-41" edge="1">
          <mxGeometry relative="1" as="geometry" />
        </mxCell>
        <mxCell id="GrpmCBo9e22xvNcF5VD7-39" value="&lt;font face=&quot;Cascadia Mono&quot;&gt;&lt;span style=&quot;font-size: 12.6667px;&quot;&gt;k++&lt;/span&gt;&lt;/font&gt;" style="whiteSpace=wrap;html=1;fontSize=11;labelBackgroundColor=default;" parent="1" vertex="1">
          <mxGeometry y="1390" width="120" height="60" as="geometry" />
        </mxCell>
        <mxCell id="GrpmCBo9e22xvNcF5VD7-43" style="edgeStyle=orthogonalEdgeStyle;shape=connector;rounded=0;orthogonalLoop=1;jettySize=auto;html=1;strokeColor=default;align=center;verticalAlign=middle;fontFamily=Helvetica;fontSize=11;fontColor=default;labelBackgroundColor=default;endArrow=classic;endFill=1;" parent="1" source="GrpmCBo9e22xvNcF5VD7-41" edge="1">
          <mxGeometry relative="1" as="geometry">
            <mxPoint x="60" y="1280" as="targetPoint" />
            <Array as="points">
              <mxPoint x="150" y="1520" />
              <mxPoint x="150" y="1280" />
            </Array>
          </mxGeometry>
        </mxCell>
        <mxCell id="GrpmCBo9e22xvNcF5VD7-45" value="" style="edgeStyle=orthogonalEdgeStyle;shape=connector;rounded=0;orthogonalLoop=1;jettySize=auto;html=1;strokeColor=default;align=center;verticalAlign=middle;fontFamily=Helvetica;fontSize=11;fontColor=default;labelBackgroundColor=default;endArrow=none;endFill=0;" parent="1" source="GrpmCBo9e22xvNcF5VD7-41" target="GrpmCBo9e22xvNcF5VD7-44" edge="1">
          <mxGeometry relative="1" as="geometry" />
        </mxCell>
        <mxCell id="GrpmCBo9e22xvNcF5VD7-41" value="k &amp;lt;= i" style="rhombus;whiteSpace=wrap;html=1;fontFamily=Helvetica;fontSize=11;fontColor=default;labelBackgroundColor=default;" parent="1" vertex="1">
          <mxGeometry x="5" y="1490" width="110" height="60" as="geometry" />
        </mxCell>
        <mxCell id="GrpmCBo9e22xvNcF5VD7-47" value="" style="edgeStyle=orthogonalEdgeStyle;shape=connector;rounded=0;orthogonalLoop=1;jettySize=auto;html=1;strokeColor=default;align=center;verticalAlign=middle;fontFamily=Helvetica;fontSize=11;fontColor=default;labelBackgroundColor=default;endArrow=none;endFill=0;" parent="1" source="GrpmCBo9e22xvNcF5VD7-44" target="GrpmCBo9e22xvNcF5VD7-46" edge="1">
          <mxGeometry relative="1" as="geometry" />
        </mxCell>
        <mxCell id="GrpmCBo9e22xvNcF5VD7-44" value="&lt;span style=&quot;font-family: &amp;quot;Cascadia Mono&amp;quot;; font-size: 12.6667px;&quot;&gt;P *= i + S&lt;/span&gt;" style="whiteSpace=wrap;html=1;fontSize=11;labelBackgroundColor=default;" parent="1" vertex="1">
          <mxGeometry y="1580" width="120" height="60" as="geometry" />
        </mxCell>
        <mxCell id="GrpmCBo9e22xvNcF5VD7-49" value="" style="edgeStyle=orthogonalEdgeStyle;shape=connector;rounded=0;orthogonalLoop=1;jettySize=auto;html=1;strokeColor=default;align=center;verticalAlign=middle;fontFamily=Helvetica;fontSize=11;fontColor=default;labelBackgroundColor=default;endArrow=none;endFill=0;" parent="1" source="GrpmCBo9e22xvNcF5VD7-46" target="GrpmCBo9e22xvNcF5VD7-48" edge="1">
          <mxGeometry relative="1" as="geometry" />
        </mxCell>
        <mxCell id="GrpmCBo9e22xvNcF5VD7-46" value="i++" style="whiteSpace=wrap;html=1;fontSize=13;labelBackgroundColor=default;" parent="1" vertex="1">
          <mxGeometry y="1680" width="120" height="60" as="geometry" />
        </mxCell>
        <mxCell id="GrpmCBo9e22xvNcF5VD7-50" style="edgeStyle=orthogonalEdgeStyle;shape=connector;rounded=0;orthogonalLoop=1;jettySize=auto;html=1;strokeColor=default;align=center;verticalAlign=middle;fontFamily=Helvetica;fontSize=11;fontColor=default;labelBackgroundColor=default;endArrow=classic;endFill=1;" parent="1" source="GrpmCBo9e22xvNcF5VD7-48" edge="1">
          <mxGeometry relative="1" as="geometry">
            <mxPoint x="60" y="1168.1175321691176" as="targetPoint" />
            <Array as="points">
              <mxPoint x="180" y="1800" />
              <mxPoint x="180" y="1168" />
            </Array>
          </mxGeometry>
        </mxCell>
        <mxCell id="GrpmCBo9e22xvNcF5VD7-52" value="" style="edgeStyle=orthogonalEdgeStyle;shape=connector;rounded=0;orthogonalLoop=1;jettySize=auto;html=1;strokeColor=default;align=center;verticalAlign=middle;fontFamily=Helvetica;fontSize=11;fontColor=default;labelBackgroundColor=default;endArrow=none;endFill=0;" parent="1" source="GrpmCBo9e22xvNcF5VD7-48" target="GrpmCBo9e22xvNcF5VD7-51" edge="1">
          <mxGeometry relative="1" as="geometry" />
        </mxCell>
        <mxCell id="GrpmCBo9e22xvNcF5VD7-48" value="&lt;span style=&quot;font-size: 9.5pt; line-height: 106%; font-family: &amp;quot;Cascadia Mono&amp;quot;; background-image: initial; background-position: initial; background-size: initial; background-repeat: initial; background-attachment: initial; background-origin: initial; background-clip: initial;&quot; lang=&quot;EN-US&quot;&gt;i &amp;lt;= 10&lt;/span&gt;" style="rhombus;whiteSpace=wrap;html=1;fontFamily=Helvetica;fontSize=11;fontColor=default;labelBackgroundColor=default;" parent="1" vertex="1">
          <mxGeometry x="5" y="1770" width="110" height="60" as="geometry" />
        </mxCell>
        <mxCell id="GrpmCBo9e22xvNcF5VD7-54" value="" style="edgeStyle=orthogonalEdgeStyle;shape=connector;rounded=0;orthogonalLoop=1;jettySize=auto;html=1;strokeColor=default;align=center;verticalAlign=middle;fontFamily=Helvetica;fontSize=11;fontColor=default;labelBackgroundColor=default;endArrow=none;endFill=0;" parent="1" source="GrpmCBo9e22xvNcF5VD7-51" target="GrpmCBo9e22xvNcF5VD7-53" edge="1">
          <mxGeometry relative="1" as="geometry" />
        </mxCell>
        <mxCell id="GrpmCBo9e22xvNcF5VD7-51" value="S" style="shape=document;whiteSpace=wrap;html=1;boundedLbl=1;fontFamily=Helvetica;fontSize=11;fontColor=default;labelBackgroundColor=default;" parent="1" vertex="1">
          <mxGeometry x="20" y="1870" width="80" height="60" as="geometry" />
        </mxCell>
        <mxCell id="GrpmCBo9e22xvNcF5VD7-53" value="1" style="ellipse;whiteSpace=wrap;html=1;fontSize=11;labelBackgroundColor=default;" parent="1" vertex="1">
          <mxGeometry x="40" y="1960" width="40" height="40" as="geometry" />
        </mxCell>
        <mxCell id="GrpmCBo9e22xvNcF5VD7-57" value="" style="edgeStyle=orthogonalEdgeStyle;shape=connector;rounded=0;orthogonalLoop=1;jettySize=auto;html=1;strokeColor=default;align=center;verticalAlign=middle;fontFamily=Helvetica;fontSize=11;fontColor=default;labelBackgroundColor=default;endArrow=none;endFill=0;" parent="1" source="GrpmCBo9e22xvNcF5VD7-55" target="GrpmCBo9e22xvNcF5VD7-56" edge="1">
          <mxGeometry relative="1" as="geometry" />
        </mxCell>
        <mxCell id="GrpmCBo9e22xvNcF5VD7-55" value="1" style="ellipse;whiteSpace=wrap;html=1;aspect=fixed;fontFamily=Helvetica;fontSize=11;fontColor=default;labelBackgroundColor=default;" parent="1" vertex="1">
          <mxGeometry x="753" y="20" width="40" height="40" as="geometry" />
        </mxCell>
        <mxCell id="GrpmCBo9e22xvNcF5VD7-59" value="" style="edgeStyle=orthogonalEdgeStyle;shape=connector;rounded=0;orthogonalLoop=1;jettySize=auto;html=1;strokeColor=default;align=center;verticalAlign=middle;fontFamily=Helvetica;fontSize=11;fontColor=default;labelBackgroundColor=default;endArrow=none;endFill=0;" parent="1" source="GrpmCBo9e22xvNcF5VD7-56" target="GrpmCBo9e22xvNcF5VD7-58" edge="1">
          <mxGeometry relative="1" as="geometry" />
        </mxCell>
        <mxCell id="GrpmCBo9e22xvNcF5VD7-56" value="S = 0" style="rounded=0;whiteSpace=wrap;html=1;fontFamily=Helvetica;fontSize=11;fontColor=default;labelBackgroundColor=default;" parent="1" vertex="1">
          <mxGeometry x="734.5" y="90" width="77" height="50" as="geometry" />
        </mxCell>
        <mxCell id="GrpmCBo9e22xvNcF5VD7-85" value="" style="edgeStyle=orthogonalEdgeStyle;shape=connector;rounded=0;orthogonalLoop=1;jettySize=auto;html=1;strokeColor=default;align=center;verticalAlign=middle;fontFamily=Helvetica;fontSize=11;fontColor=default;labelBackgroundColor=default;endArrow=none;endFill=0;" parent="1" source="GrpmCBo9e22xvNcF5VD7-58" target="GrpmCBo9e22xvNcF5VD7-65" edge="1">
          <mxGeometry relative="1" as="geometry" />
        </mxCell>
        <mxCell id="GrpmCBo9e22xvNcF5VD7-58" value="i = 1" style="rounded=0;whiteSpace=wrap;html=1;fontFamily=Helvetica;fontSize=11;fontColor=default;labelBackgroundColor=default;" parent="1" vertex="1">
          <mxGeometry x="734.5" y="180" width="77" height="50" as="geometry" />
        </mxCell>
        <mxCell id="GrpmCBo9e22xvNcF5VD7-63" value="" style="edgeStyle=orthogonalEdgeStyle;shape=connector;rounded=0;orthogonalLoop=1;jettySize=auto;html=1;strokeColor=default;align=center;verticalAlign=middle;fontFamily=Helvetica;fontSize=11;fontColor=default;labelBackgroundColor=default;endArrow=none;endFill=0;" parent="1" source="GrpmCBo9e22xvNcF5VD7-65" target="GrpmCBo9e22xvNcF5VD7-67" edge="1">
          <mxGeometry relative="1" as="geometry">
            <Array as="points">
              <mxPoint x="888" y="320" />
            </Array>
          </mxGeometry>
        </mxCell>
        <mxCell id="GrpmCBo9e22xvNcF5VD7-64" style="edgeStyle=orthogonalEdgeStyle;shape=connector;rounded=0;orthogonalLoop=1;jettySize=auto;html=1;entryX=0.5;entryY=0;entryDx=0;entryDy=0;strokeColor=default;align=center;verticalAlign=middle;fontFamily=Helvetica;fontSize=11;fontColor=default;labelBackgroundColor=default;endArrow=none;endFill=0;" parent="1" source="GrpmCBo9e22xvNcF5VD7-65" target="GrpmCBo9e22xvNcF5VD7-84" edge="1">
          <mxGeometry relative="1" as="geometry">
            <Array as="points">
              <mxPoint x="670" y="320" />
              <mxPoint x="670" y="890" />
              <mxPoint x="730" y="890" />
            </Array>
          </mxGeometry>
        </mxCell>
        <mxCell id="GrpmCBo9e22xvNcF5VD7-65" value="i &amp;lt;= 10" style="rhombus;whiteSpace=wrap;html=1;fontFamily=Helvetica;fontSize=11;fontColor=default;labelBackgroundColor=default;" parent="1" vertex="1">
          <mxGeometry x="718" y="280" width="110" height="80" as="geometry" />
        </mxCell>
        <mxCell id="GrpmCBo9e22xvNcF5VD7-66" value="" style="edgeStyle=orthogonalEdgeStyle;shape=connector;rounded=0;orthogonalLoop=1;jettySize=auto;html=1;strokeColor=default;align=center;verticalAlign=middle;fontFamily=Helvetica;fontSize=11;fontColor=default;labelBackgroundColor=default;endArrow=none;endFill=0;" parent="1" source="GrpmCBo9e22xvNcF5VD7-67" target="GrpmCBo9e22xvNcF5VD7-69" edge="1">
          <mxGeometry relative="1" as="geometry" />
        </mxCell>
        <mxCell id="GrpmCBo9e22xvNcF5VD7-67" value="P = 1" style="whiteSpace=wrap;html=1;fontSize=11;labelBackgroundColor=default;" parent="1" vertex="1">
          <mxGeometry x="847" y="360" width="82" height="50" as="geometry" />
        </mxCell>
        <mxCell id="GrpmCBo9e22xvNcF5VD7-68" value="" style="edgeStyle=orthogonalEdgeStyle;shape=connector;rounded=0;orthogonalLoop=1;jettySize=auto;html=1;strokeColor=default;align=center;verticalAlign=middle;fontFamily=Helvetica;fontSize=11;fontColor=default;labelBackgroundColor=default;endArrow=none;endFill=0;" parent="1" source="GrpmCBo9e22xvNcF5VD7-69" target="GrpmCBo9e22xvNcF5VD7-72" edge="1">
          <mxGeometry relative="1" as="geometry" />
        </mxCell>
        <mxCell id="GrpmCBo9e22xvNcF5VD7-69" value="k = 1" style="whiteSpace=wrap;html=1;fontSize=11;labelBackgroundColor=default;" parent="1" vertex="1">
          <mxGeometry x="847" y="440" width="82" height="50" as="geometry" />
        </mxCell>
        <mxCell id="GrpmCBo9e22xvNcF5VD7-70" value="" style="edgeStyle=orthogonalEdgeStyle;shape=connector;rounded=0;orthogonalLoop=1;jettySize=auto;html=1;strokeColor=default;align=center;verticalAlign=middle;fontFamily=Helvetica;fontSize=11;fontColor=default;labelBackgroundColor=default;endArrow=none;endFill=0;" parent="1" source="GrpmCBo9e22xvNcF5VD7-72" target="GrpmCBo9e22xvNcF5VD7-74" edge="1">
          <mxGeometry relative="1" as="geometry">
            <Array as="points">
              <mxPoint x="1003" y="560" />
            </Array>
          </mxGeometry>
        </mxCell>
        <mxCell id="GrpmCBo9e22xvNcF5VD7-71" style="edgeStyle=orthogonalEdgeStyle;shape=connector;rounded=0;orthogonalLoop=1;jettySize=auto;html=1;entryX=0.5;entryY=0;entryDx=0;entryDy=0;strokeColor=default;align=center;verticalAlign=middle;fontFamily=Helvetica;fontSize=11;fontColor=default;labelBackgroundColor=default;endArrow=none;endFill=0;" parent="1" source="GrpmCBo9e22xvNcF5VD7-72" target="GrpmCBo9e22xvNcF5VD7-78" edge="1">
          <mxGeometry relative="1" as="geometry">
            <Array as="points">
              <mxPoint x="786" y="560" />
              <mxPoint x="786" y="720" />
              <mxPoint x="888" y="720" />
            </Array>
          </mxGeometry>
        </mxCell>
        <mxCell id="GrpmCBo9e22xvNcF5VD7-72" value="k &amp;lt;= i" style="rhombus;whiteSpace=wrap;html=1;fontFamily=Helvetica;fontSize=11;fontColor=default;labelBackgroundColor=default;" parent="1" vertex="1">
          <mxGeometry x="833" y="520" width="110" height="80" as="geometry" />
        </mxCell>
        <mxCell id="GrpmCBo9e22xvNcF5VD7-73" value="" style="edgeStyle=orthogonalEdgeStyle;shape=connector;rounded=0;orthogonalLoop=1;jettySize=auto;html=1;strokeColor=default;align=center;verticalAlign=middle;fontFamily=Helvetica;fontSize=11;fontColor=default;labelBackgroundColor=default;endArrow=none;endFill=0;" parent="1" source="GrpmCBo9e22xvNcF5VD7-74" target="GrpmCBo9e22xvNcF5VD7-76" edge="1">
          <mxGeometry relative="1" as="geometry" />
        </mxCell>
        <mxCell id="GrpmCBo9e22xvNcF5VD7-74" value="&lt;span style=&quot;font-family: &amp;quot;Cascadia Mono&amp;quot;; font-size: 12.6667px;&quot;&gt;P *= i + S&lt;/span&gt;" style="whiteSpace=wrap;html=1;fontSize=11;labelBackgroundColor=default;" parent="1" vertex="1">
          <mxGeometry x="943" y="600" width="120" height="60" as="geometry" />
        </mxCell>
        <mxCell id="GrpmCBo9e22xvNcF5VD7-75" style="edgeStyle=orthogonalEdgeStyle;shape=connector;rounded=0;orthogonalLoop=1;jettySize=auto;html=1;strokeColor=default;align=center;verticalAlign=middle;fontFamily=Helvetica;fontSize=11;fontColor=default;labelBackgroundColor=default;endArrow=classic;endFill=1;" parent="1" source="GrpmCBo9e22xvNcF5VD7-76" edge="1">
          <mxGeometry relative="1" as="geometry">
            <mxPoint x="886" y="510" as="targetPoint" />
            <Array as="points">
              <mxPoint x="1080" y="720" />
              <mxPoint x="1080" y="510" />
            </Array>
          </mxGeometry>
        </mxCell>
        <mxCell id="GrpmCBo9e22xvNcF5VD7-76" value="i++" style="whiteSpace=wrap;html=1;fontSize=13;labelBackgroundColor=default;" parent="1" vertex="1">
          <mxGeometry x="943" y="690" width="120" height="60" as="geometry" />
        </mxCell>
        <mxCell id="GrpmCBo9e22xvNcF5VD7-77" value="" style="edgeStyle=orthogonalEdgeStyle;shape=connector;rounded=0;orthogonalLoop=1;jettySize=auto;html=1;strokeColor=default;align=center;verticalAlign=middle;fontFamily=Helvetica;fontSize=11;fontColor=default;labelBackgroundColor=default;endArrow=none;endFill=0;" parent="1" source="GrpmCBo9e22xvNcF5VD7-78" target="GrpmCBo9e22xvNcF5VD7-80" edge="1">
          <mxGeometry relative="1" as="geometry" />
        </mxCell>
        <mxCell id="GrpmCBo9e22xvNcF5VD7-78" value="&lt;span style=&quot;font-family: &amp;quot;Cascadia Mono&amp;quot;; font-size: 12.6667px;&quot;&gt;S += 1. / k&lt;/span&gt;" style="whiteSpace=wrap;html=1;fontSize=11;labelBackgroundColor=default;" parent="1" vertex="1">
          <mxGeometry x="828" y="770" width="120" height="60" as="geometry" />
        </mxCell>
        <mxCell id="GrpmCBo9e22xvNcF5VD7-79" style="edgeStyle=orthogonalEdgeStyle;shape=connector;rounded=0;orthogonalLoop=1;jettySize=auto;html=1;strokeColor=default;align=center;verticalAlign=middle;fontFamily=Helvetica;fontSize=11;fontColor=default;labelBackgroundColor=default;endArrow=classic;endFill=1;" parent="1" source="GrpmCBo9e22xvNcF5VD7-80" edge="1">
          <mxGeometry relative="1" as="geometry">
            <mxPoint x="776" y="270" as="targetPoint" />
            <Array as="points">
              <mxPoint x="1110" y="890" />
              <mxPoint x="1110" y="270" />
            </Array>
          </mxGeometry>
        </mxCell>
        <mxCell id="GrpmCBo9e22xvNcF5VD7-80" value="&lt;font face=&quot;Cascadia Mono&quot;&gt;&lt;span style=&quot;font-size: 12.6667px;&quot;&gt;k++&lt;/span&gt;&lt;/font&gt;" style="whiteSpace=wrap;html=1;fontSize=11;labelBackgroundColor=default;" parent="1" vertex="1">
          <mxGeometry x="828" y="860" width="120" height="60" as="geometry" />
        </mxCell>
        <mxCell id="GrpmCBo9e22xvNcF5VD7-81" value="+" style="text;html=1;align=center;verticalAlign=middle;resizable=0;points=[];autosize=1;strokeColor=none;fillColor=none;fontFamily=Helvetica;fontSize=11;fontColor=default;labelBackgroundColor=default;" parent="1" vertex="1">
          <mxGeometry x="966" y="530" width="30" height="30" as="geometry" />
        </mxCell>
        <mxCell id="GrpmCBo9e22xvNcF5VD7-82" value="+" style="text;html=1;align=center;verticalAlign=middle;resizable=0;points=[];autosize=1;strokeColor=none;fillColor=none;fontFamily=Helvetica;fontSize=11;fontColor=default;labelBackgroundColor=default;" parent="1" vertex="1">
          <mxGeometry x="847" y="290" width="30" height="30" as="geometry" />
        </mxCell>
        <mxCell id="GrpmCBo9e22xvNcF5VD7-83" value="-" style="text;html=1;align=center;verticalAlign=middle;resizable=0;points=[];autosize=1;strokeColor=none;fillColor=none;fontFamily=Helvetica;fontSize=11;fontColor=default;labelBackgroundColor=default;" parent="1" vertex="1">
          <mxGeometry x="790" y="530" width="30" height="30" as="geometry" />
        </mxCell>
        <mxCell id="GrpmCBo9e22xvNcF5VD7-87" value="" style="edgeStyle=orthogonalEdgeStyle;shape=connector;rounded=0;orthogonalLoop=1;jettySize=auto;html=1;strokeColor=default;align=center;verticalAlign=middle;fontFamily=Helvetica;fontSize=11;fontColor=default;labelBackgroundColor=default;endArrow=none;endFill=0;" parent="1" source="GrpmCBo9e22xvNcF5VD7-84" target="GrpmCBo9e22xvNcF5VD7-86" edge="1">
          <mxGeometry relative="1" as="geometry" />
        </mxCell>
        <mxCell id="GrpmCBo9e22xvNcF5VD7-84" value="S" style="shape=document;whiteSpace=wrap;html=1;boundedLbl=1;fontFamily=Helvetica;fontSize=11;fontColor=default;labelBackgroundColor=default;" parent="1" vertex="1">
          <mxGeometry x="690" y="930" width="80" height="60" as="geometry" />
        </mxCell>
        <mxCell id="GrpmCBo9e22xvNcF5VD7-89" value="" style="edgeStyle=orthogonalEdgeStyle;shape=connector;rounded=0;orthogonalLoop=1;jettySize=auto;html=1;strokeColor=default;align=center;verticalAlign=middle;fontFamily=Helvetica;fontSize=11;fontColor=default;labelBackgroundColor=default;endArrow=none;endFill=0;" parent="1" source="GrpmCBo9e22xvNcF5VD7-86" target="GrpmCBo9e22xvNcF5VD7-88" edge="1">
          <mxGeometry relative="1" as="geometry" />
        </mxCell>
        <mxCell id="GrpmCBo9e22xvNcF5VD7-86" value="S = 0" style="rounded=0;whiteSpace=wrap;html=1;fontFamily=Helvetica;fontSize=11;fontColor=default;labelBackgroundColor=default;" parent="1" vertex="1">
          <mxGeometry x="691.5" y="1020" width="77" height="50" as="geometry" />
        </mxCell>
        <mxCell id="GrpmCBo9e22xvNcF5VD7-91" value="" style="edgeStyle=orthogonalEdgeStyle;shape=connector;rounded=0;orthogonalLoop=1;jettySize=auto;html=1;strokeColor=default;align=center;verticalAlign=middle;fontFamily=Helvetica;fontSize=11;fontColor=default;labelBackgroundColor=default;endArrow=none;endFill=0;" parent="1" source="GrpmCBo9e22xvNcF5VD7-88" target="GrpmCBo9e22xvNcF5VD7-90" edge="1">
          <mxGeometry relative="1" as="geometry" />
        </mxCell>
        <mxCell id="GrpmCBo9e22xvNcF5VD7-88" value="i = 10" style="rounded=0;whiteSpace=wrap;html=1;fontFamily=Helvetica;fontSize=11;fontColor=default;labelBackgroundColor=default;" parent="1" vertex="1">
          <mxGeometry x="691.5" y="1100" width="77" height="50" as="geometry" />
        </mxCell>
        <mxCell id="GrpmCBo9e22xvNcF5VD7-93" value="" style="edgeStyle=orthogonalEdgeStyle;shape=connector;rounded=0;orthogonalLoop=1;jettySize=auto;html=1;strokeColor=default;align=center;verticalAlign=middle;fontFamily=Helvetica;fontSize=11;fontColor=default;labelBackgroundColor=default;endArrow=none;endFill=0;" parent="1" source="GrpmCBo9e22xvNcF5VD7-90" target="GrpmCBo9e22xvNcF5VD7-92" edge="1">
          <mxGeometry relative="1" as="geometry">
            <Array as="points">
              <mxPoint x="828" y="1210" />
            </Array>
          </mxGeometry>
        </mxCell>
        <mxCell id="GrpmCBo9e22xvNcF5VD7-113" style="edgeStyle=orthogonalEdgeStyle;shape=connector;rounded=0;orthogonalLoop=1;jettySize=auto;html=1;strokeColor=default;align=center;verticalAlign=middle;fontFamily=Helvetica;fontSize=11;fontColor=default;labelBackgroundColor=default;endArrow=none;endFill=0;entryX=0.5;entryY=0;entryDx=0;entryDy=0;" parent="1" source="GrpmCBo9e22xvNcF5VD7-90" target="GrpmCBo9e22xvNcF5VD7-115" edge="1">
          <mxGeometry relative="1" as="geometry">
            <mxPoint x="720" y="1840" as="targetPoint" />
            <Array as="points">
              <mxPoint x="630" y="1210" />
              <mxPoint x="630" y="1800" />
              <mxPoint x="720" y="1800" />
            </Array>
          </mxGeometry>
        </mxCell>
        <mxCell id="GrpmCBo9e22xvNcF5VD7-90" value="&lt;span style=&quot;font-size: 9.5pt; line-height: 106%; font-family: &amp;quot;Cascadia Mono&amp;quot;; background-image: initial; background-position: initial; background-size: initial; background-repeat: initial; background-attachment: initial; background-origin: initial; background-clip: initial;&quot; lang=&quot;EN-US&quot;&gt;i &amp;gt;= 1&lt;/span&gt;" style="rhombus;whiteSpace=wrap;html=1;fontFamily=Helvetica;fontSize=11;fontColor=default;labelBackgroundColor=default;" parent="1" vertex="1">
          <mxGeometry x="675" y="1180" width="110" height="60" as="geometry" />
        </mxCell>
        <mxCell id="GrpmCBo9e22xvNcF5VD7-99" value="" style="edgeStyle=orthogonalEdgeStyle;shape=connector;rounded=0;orthogonalLoop=1;jettySize=auto;html=1;strokeColor=default;align=center;verticalAlign=middle;fontFamily=Helvetica;fontSize=11;fontColor=default;labelBackgroundColor=default;endArrow=none;endFill=0;" parent="1" source="GrpmCBo9e22xvNcF5VD7-92" target="GrpmCBo9e22xvNcF5VD7-98" edge="1">
          <mxGeometry relative="1" as="geometry" />
        </mxCell>
        <mxCell id="GrpmCBo9e22xvNcF5VD7-92" value="P = 1" style="whiteSpace=wrap;html=1;fontSize=11;labelBackgroundColor=default;" parent="1" vertex="1">
          <mxGeometry x="785" y="1240" width="85" height="50" as="geometry" />
        </mxCell>
        <mxCell id="GrpmCBo9e22xvNcF5VD7-94" value="+" style="text;html=1;align=center;verticalAlign=middle;resizable=0;points=[];autosize=1;strokeColor=none;fillColor=none;fontFamily=Helvetica;fontSize=11;fontColor=default;labelBackgroundColor=default;" parent="1" vertex="1">
          <mxGeometry x="797" y="1180" width="30" height="30" as="geometry" />
        </mxCell>
        <mxCell id="GrpmCBo9e22xvNcF5VD7-95" value="-" style="text;html=1;align=center;verticalAlign=middle;resizable=0;points=[];autosize=1;strokeColor=none;fillColor=none;fontFamily=Helvetica;fontSize=11;fontColor=default;labelBackgroundColor=default;" parent="1" vertex="1">
          <mxGeometry x="5" y="350" width="30" height="30" as="geometry" />
        </mxCell>
        <mxCell id="GrpmCBo9e22xvNcF5VD7-96" value="-" style="text;html=1;align=center;verticalAlign=middle;resizable=0;points=[];autosize=1;strokeColor=none;fillColor=none;fontFamily=Helvetica;fontSize=11;fontColor=default;labelBackgroundColor=default;" parent="1" vertex="1">
          <mxGeometry x="675" y="290" width="30" height="30" as="geometry" />
        </mxCell>
        <mxCell id="GrpmCBo9e22xvNcF5VD7-101" value="" style="edgeStyle=orthogonalEdgeStyle;shape=connector;rounded=0;orthogonalLoop=1;jettySize=auto;html=1;strokeColor=default;align=center;verticalAlign=middle;fontFamily=Helvetica;fontSize=11;fontColor=default;labelBackgroundColor=default;endArrow=none;endFill=0;" parent="1" source="GrpmCBo9e22xvNcF5VD7-98" target="GrpmCBo9e22xvNcF5VD7-100" edge="1">
          <mxGeometry relative="1" as="geometry" />
        </mxCell>
        <mxCell id="GrpmCBo9e22xvNcF5VD7-98" value="k = i" style="whiteSpace=wrap;html=1;fontSize=11;labelBackgroundColor=default;" parent="1" vertex="1">
          <mxGeometry x="785" y="1330" width="85" height="50" as="geometry" />
        </mxCell>
        <mxCell id="GrpmCBo9e22xvNcF5VD7-103" value="" style="edgeStyle=orthogonalEdgeStyle;shape=connector;rounded=0;orthogonalLoop=1;jettySize=auto;html=1;strokeColor=default;align=center;verticalAlign=middle;fontFamily=Helvetica;fontSize=11;fontColor=default;labelBackgroundColor=default;endArrow=none;endFill=0;" parent="1" source="GrpmCBo9e22xvNcF5VD7-100" target="GrpmCBo9e22xvNcF5VD7-102" edge="1">
          <mxGeometry relative="1" as="geometry">
            <Array as="points">
              <mxPoint x="920" y="1440" />
            </Array>
          </mxGeometry>
        </mxCell>
        <mxCell id="GrpmCBo9e22xvNcF5VD7-109" style="edgeStyle=orthogonalEdgeStyle;shape=connector;rounded=0;orthogonalLoop=1;jettySize=auto;html=1;entryX=0.5;entryY=0;entryDx=0;entryDy=0;strokeColor=default;align=center;verticalAlign=middle;fontFamily=Helvetica;fontSize=11;fontColor=default;labelBackgroundColor=default;endArrow=none;endFill=0;" parent="1" source="GrpmCBo9e22xvNcF5VD7-100" target="GrpmCBo9e22xvNcF5VD7-108" edge="1">
          <mxGeometry relative="1" as="geometry">
            <Array as="points">
              <mxPoint x="740" y="1440" />
              <mxPoint x="740" y="1630" />
              <mxPoint x="828" y="1630" />
            </Array>
          </mxGeometry>
        </mxCell>
        <mxCell id="GrpmCBo9e22xvNcF5VD7-100" value="&lt;span style=&quot;font-size: 9.5pt; line-height: 106%; font-family: &amp;quot;Cascadia Mono&amp;quot;; background-image: initial; background-position: initial; background-size: initial; background-repeat: initial; background-attachment: initial; background-origin: initial; background-clip: initial;&quot; lang=&quot;EN-US&quot;&gt;k &amp;gt;= 1&lt;/span&gt;" style="rhombus;whiteSpace=wrap;html=1;fontFamily=Helvetica;fontSize=11;fontColor=default;labelBackgroundColor=default;" parent="1" vertex="1">
          <mxGeometry x="772.5" y="1410" width="110" height="60" as="geometry" />
        </mxCell>
        <mxCell id="GrpmCBo9e22xvNcF5VD7-105" value="" style="edgeStyle=orthogonalEdgeStyle;shape=connector;rounded=0;orthogonalLoop=1;jettySize=auto;html=1;strokeColor=default;align=center;verticalAlign=middle;fontFamily=Helvetica;fontSize=11;fontColor=default;labelBackgroundColor=default;endArrow=none;endFill=0;" parent="1" source="GrpmCBo9e22xvNcF5VD7-102" target="GrpmCBo9e22xvNcF5VD7-104" edge="1">
          <mxGeometry relative="1" as="geometry" />
        </mxCell>
        <mxCell id="GrpmCBo9e22xvNcF5VD7-102" value="&lt;span style=&quot;font-size: 9.5pt; line-height: 106%; font-family: &amp;quot;Cascadia Mono&amp;quot;; background-image: initial; background-position: initial; background-size: initial; background-repeat: initial; background-attachment: initial; background-origin: initial; background-clip: initial;&quot; lang=&quot;EN-US&quot;&gt;S += 1. / k&lt;/span&gt;" style="whiteSpace=wrap;html=1;fontSize=11;labelBackgroundColor=default;" parent="1" vertex="1">
          <mxGeometry x="870" y="1480" width="100" height="50" as="geometry" />
        </mxCell>
        <mxCell id="GrpmCBo9e22xvNcF5VD7-106" style="edgeStyle=orthogonalEdgeStyle;shape=connector;rounded=0;orthogonalLoop=1;jettySize=auto;html=1;strokeColor=default;align=center;verticalAlign=middle;fontFamily=Helvetica;fontSize=11;fontColor=default;labelBackgroundColor=default;endArrow=classic;endFill=1;" parent="1" source="GrpmCBo9e22xvNcF5VD7-104" edge="1">
          <mxGeometry relative="1" as="geometry">
            <mxPoint x="830" y="1399.9999999999998" as="targetPoint" />
            <Array as="points">
              <mxPoint x="920" y="1630" />
              <mxPoint x="1000" y="1630" />
              <mxPoint x="1000" y="1400" />
            </Array>
          </mxGeometry>
        </mxCell>
        <mxCell id="GrpmCBo9e22xvNcF5VD7-104" value="&lt;font face=&quot;Cascadia Mono&quot;&gt;&lt;span style=&quot;font-size: 12.6667px;&quot;&gt;k--&lt;/span&gt;&lt;/font&gt;" style="whiteSpace=wrap;html=1;fontSize=11;labelBackgroundColor=default;" parent="1" vertex="1">
          <mxGeometry x="890" y="1570" width="60" height="40" as="geometry" />
        </mxCell>
        <mxCell id="GrpmCBo9e22xvNcF5VD7-107" value="+" style="text;html=1;align=center;verticalAlign=middle;resizable=0;points=[];autosize=1;strokeColor=none;fillColor=none;fontFamily=Helvetica;fontSize=11;fontColor=default;labelBackgroundColor=default;" parent="1" vertex="1">
          <mxGeometry x="890" y="1410" width="30" height="30" as="geometry" />
        </mxCell>
        <mxCell id="GrpmCBo9e22xvNcF5VD7-112" value="" style="edgeStyle=orthogonalEdgeStyle;shape=connector;rounded=0;orthogonalLoop=1;jettySize=auto;html=1;strokeColor=default;align=center;verticalAlign=middle;fontFamily=Helvetica;fontSize=11;fontColor=default;labelBackgroundColor=default;endArrow=none;endFill=0;" parent="1" source="GrpmCBo9e22xvNcF5VD7-108" target="GrpmCBo9e22xvNcF5VD7-111" edge="1">
          <mxGeometry relative="1" as="geometry" />
        </mxCell>
        <mxCell id="GrpmCBo9e22xvNcF5VD7-108" value="&lt;span style=&quot;font-family: &amp;quot;Cascadia Mono&amp;quot;; font-size: 12.6667px;&quot;&gt;P *= i + S&lt;/span&gt;" style="whiteSpace=wrap;html=1;fontSize=11;labelBackgroundColor=default;" parent="1" vertex="1">
          <mxGeometry x="779.5" y="1670" width="97.5" height="50" as="geometry" />
        </mxCell>
        <mxCell id="GrpmCBo9e22xvNcF5VD7-110" value="-" style="text;html=1;align=center;verticalAlign=middle;resizable=0;points=[];autosize=1;strokeColor=none;fillColor=none;fontFamily=Helvetica;fontSize=11;fontColor=default;labelBackgroundColor=default;" parent="1" vertex="1">
          <mxGeometry x="738.5" y="1410" width="30" height="30" as="geometry" />
        </mxCell>
        <mxCell id="GrpmCBo9e22xvNcF5VD7-111" value="i--" style="whiteSpace=wrap;html=1;fontSize=13;labelBackgroundColor=default;" parent="1" vertex="1">
          <mxGeometry x="788.75" y="1754" width="77.5" height="40" as="geometry" />
        </mxCell>
        <mxCell id="GrpmCBo9e22xvNcF5VD7-114" value="-" style="text;html=1;align=center;verticalAlign=middle;resizable=0;points=[];autosize=1;strokeColor=none;fillColor=none;fontFamily=Helvetica;fontSize=11;fontColor=default;labelBackgroundColor=default;" parent="1" vertex="1">
          <mxGeometry x="630" y="1180" width="30" height="30" as="geometry" />
        </mxCell>
        <mxCell id="GrpmCBo9e22xvNcF5VD7-117" value="" style="edgeStyle=orthogonalEdgeStyle;shape=connector;rounded=0;orthogonalLoop=1;jettySize=auto;html=1;strokeColor=default;align=center;verticalAlign=middle;fontFamily=Helvetica;fontSize=11;fontColor=default;labelBackgroundColor=default;endArrow=none;endFill=0;" parent="1" source="GrpmCBo9e22xvNcF5VD7-115" target="GrpmCBo9e22xvNcF5VD7-116" edge="1">
          <mxGeometry relative="1" as="geometry" />
        </mxCell>
        <mxCell id="GrpmCBo9e22xvNcF5VD7-115" value="S" style="shape=document;whiteSpace=wrap;html=1;boundedLbl=1;fontFamily=Helvetica;fontSize=11;fontColor=default;labelBackgroundColor=default;" parent="1" vertex="1">
          <mxGeometry x="680" y="1840" width="80" height="60" as="geometry" />
        </mxCell>
        <mxCell id="GrpmCBo9e22xvNcF5VD7-116" value="кінець" style="rounded=1;whiteSpace=wrap;html=1;fontFamily=Helvetica;fontSize=11;fontColor=default;labelBackgroundColor=default;" parent="1" vertex="1">
          <mxGeometry x="668.75" y="1930" width="102.5" height="40" as="geometry" />
        </mxCell>
      </root>
    </mxGraphModel>
  </diagram>
</mxfile>
